<?xml version="1.0" encoding="utf-8"?>
<!-- Generator: Adobe Illustrator 24.2.3, SVG Export Plug-In . SVG Version: 6.00 Build 0)  -->
<svg version="1.1" xmlns="http://www.w3.org/2000/svg" xmlns:xlink="http://www.w3.org/1999/xlink" x="0px" y="0px"
	 viewBox="0 0 50 50" style="enable-background:new 0 0 50 50;" xml:space="preserve">
<style type="text/css">
	.st0{display:none;}
	.st1{display:inline;fill:#FFFFFF;}
	.st2{fill:#FFFFFF;}
</style>

	<path fill="currentColor" d="M19.1,43.6c0,1.5,0,3,0,4.4c0,0.8-0.8,1.2-1.8,0.9c-2-0.7-4-1.7-5.7-2.9c-5.3-3.8-8.7-8.9-10.1-15.3
		c-2-9.7,2.1-20,10.2-25.5c9.6-6.5,22.2-5.2,30.3,3c3.9,3.9,6.2,8.7,6.8,14.2c0.8,7.4-1.2,14-6,19.6c-2.7,3.1-6.1,5.4-10,6.7
		c-1.1,0.4-1.7-0.1-1.7-1.3c0-1.9,0-3.9,0-5.8c0-1.9-0.2-3.8-1.6-5.3c1-0.2,1.9-0.3,2.8-0.6c3-0.8,5.5-2.3,6.9-5.3
		c1.1-2.4,1.3-4.9,1.1-7.4c-0.1-2-0.8-3.8-2.1-5.3c-0.1-0.1-0.1-0.4-0.1-0.5c0.7-2,0.5-4-0.2-6C37.8,11,37.6,11,37.3,11
		c-1.3,0-2.6,0.5-3.7,1.1c-0.7,0.3-1.3,0.8-2,1.1c-0.2,0.1-0.6,0.2-0.8,0.1c-3.8-0.9-7.5-0.9-11.3,0c-0.4,0.1-0.6,0-0.9-0.2
		c-1.5-1-3-1.8-4.7-2.1c-1.3-0.3-1.5-0.2-1.8,1.2c-0.4,1.7-0.5,3.4,0.1,5.2c0,0.1,0,0.3-0.1,0.5c-1.8,2.3-2.4,4.9-2.2,7.8
		c0.1,1.7,0.4,3.4,1.2,4.9c1.3,2.8,3.6,4.4,6.4,5.2c0.9,0.3,1.8,0.4,2.7,0.6c0.2,0,0.3,0.1,0.5,0.1c-0.9,0.8-1.4,1.9-1.5,3
		c0,0.1-0.2,0.3-0.3,0.3c-1.1,0.5-2.2,0.7-3.4,0.5c-1.5-0.2-2.5-1.2-3.3-2.5c-0.8-1.3-1.9-2.3-3.4-2.5c-0.4-0.1-0.8,0-1.1,0.1
		c-0.4,0.1-0.5,0.4-0.2,0.7c0.2,0.2,0.4,0.4,0.6,0.5c1.3,0.8,2.2,1.9,2.7,3.3c1.1,3.1,3.9,4.3,7.1,3.9
		C18.2,43.7,18.7,43.7,19.1,43.6z"/>
</svg>
