<svg xmlns="http://www.w3.org/2000/svg" viewBox="0 0 48 48">
    <path fill="currentColor" d="M45.16,1H5.1A3.92,3.92,0,0,0,1,4.74V44.89A4.22,4.22,0,0,0,5.1,49H45.15A4,4,0,0,0,49,44.89V4.74A3.69,3.69,0,0,0,45.16,1ZM15.88,41H9V19.63h6.88Zm-3.2-24.63h0A3.53,3.53,0,0,1,9,12.69,3.55,3.55,0,0,1,12.72,9a3.54,3.54,0,0,1,3.67,3.69A3.55,3.55,0,0,1,12.68,16.38ZM41,41H34.13V29.32c0-2.8-1-4.71-3.48-4.71a3.75,3.75,0,0,0-3.53,2.53,4.6,4.6,0,0,0-.24,1.69V41H20V19.63h6.88v3a7,7,0,0,1,6.2-3.48c4.52,0,7.93,3,7.93,9.39Z" transform="translate(-1 -1)"/>
</svg>