<svg id="Layer_1" data-name="Layer 1" xmlns="http://www.w3.org/2000/svg" viewBox="0 0 196.27 196.21"><defs><style>.cls-1{fill:none;}.cls-2{fill:#f89224;}</style></defs><path class="cls-1" d="M168.4,129.76l-1,.89A188.82,188.82,0,0,1,134.11,124c-5-1.46-9.64-2.93-14-4.44a68.84,68.84,0,0,1-.31-10.54c1-14.35,2.13-28.68,3.36-43,.54-6.24,1.41-12.45,2.13-18.71h6.27v65.66h6.06V47.25h6.57V113h6.06V47.3h6.92v65.63h6V47.29H168c1.15,10.6,2.59,21,3.37,31.5,1,13,1.44,26.14,2,39.22A14.93,14.93,0,0,1,168.4,129.76Z" transform="translate(-8.03 -6.33)"/><path class="cls-2" d="M200.87,130.21c-.05.17-.1.33-.14.49a128.84,128.84,0,0,1-18,1.22,149.12,149.12,0,0,1-15.76-.86c.16-.13.31-.27.46-.41l1-.89A14.93,14.93,0,0,0,173.35,118c-.57-13.08-1-26.17-2-39.22-.78-10.48-2.22-20.9-3.37-31.5h-4.78v65.64h-6V47.3h-6.92V113h-6.06V47.25h-6.57v65.69h-6.06V47.28h-6.27c-.72,6.26-1.59,12.47-2.13,18.71-1.23,14.33-2.41,28.66-3.36,43a68.84,68.84,0,0,0,.31,10.54c0,.17,0,.34,0,.51a188.08,188.08,0,0,1-17.48-7l.18-.43c5.33-12.55,6.52-25.6,1.82-38.93A41.62,41.62,0,0,0,87.34,51.61c-10.2-6.39-20.68-6-30.28,1.28-11.59,8.77-17.64,20.58-18.13,35,0,1,0,2,0,2.95v.51A108.23,108.23,0,0,0,8.44,95.61c0-.18,0-.35.05-.52a98.13,98.13,0,1,1,192.38,35.12Z" transform="translate(-8.03 -6.33)"/><path class="cls-2" d="M53.53,76.68C53,80.32,52.3,84,52,87.62c-.14,1.45-.2,2.88-.21,4.29v.48c-2-.3-4.06-.54-6.12-.7,0-.17,0-.32.06-.48a41.71,41.71,0,0,1,5.47-14.89c.4-.68,1.38-1,2-1.34C54.53,75.12,53.54,76.64,53.53,76.68Z" transform="translate(-8.03 -6.33)"/><path d="M200.73,130.7c-7.32,26.11-25,47.14-45.37,58.26-.65-12.32-1.29-24.42-1.93-36.52-.2-3.93-.31-7.87-.6-11.8-.11-1.46.26-2.15,1.74-2.54a30,30,0,0,0,12.42-7,149.12,149.12,0,0,0,15.76.86A128.84,128.84,0,0,0,200.73,130.7Z" transform="translate(-8.03 -6.33)"/><path d="M67,133.64c-1,19.66-2,39.24-3,58.87-28.35-12.09-58-46.77-55.79-92.77.07-1.39.17-2.76.29-4.13A108.23,108.23,0,0,1,38.9,91.39a53.15,53.15,0,0,0,7.44,27c4.14,6.88,9.81,11.83,17.59,14.19C64.94,132.87,65.92,133.26,67,133.64Z" transform="translate(-8.03 -6.33)"/><path d="M140.28,140.52c-.93,18.46-1.85,36.91-2.87,55.36a2.72,2.72,0,0,1-1.57,1.94A95.51,95.51,0,0,1,84.31,200a1.88,1.88,0,0,1-1.73-2.12Q81.22,170.42,79.79,143c-.16-3-.33-6.05-.5-9.23A27.3,27.3,0,0,1,82,132.67c9.07-2.54,15.37-8.53,19.35-16.71.47-1,.91-1.94,1.33-2.91a188.08,188.08,0,0,0,17.48,7c0,.62.11,1.24.17,1.86a9.66,9.66,0,0,0,1.82,4.54,30.21,30.21,0,0,0,16.55,11.69c.5.14,1,.35,1.58.57C140.29,139.33,140.31,139.93,140.28,140.52Z" transform="translate(-8.03 -6.33)"/><path d="M63.91,125a7.43,7.43,0,0,1-2.69-.38c-6.49-3.74-10.63-9.34-13.39-16.28a33,33,0,0,1-2.2-16.69c2.06.16,4.1.4,6.12.7.1,11.2,4.31,21.13,11.19,30.22A9.87,9.87,0,0,1,63.91,125Z" transform="translate(-8.03 -6.33)"/></svg>