<svg id="Layer_1" data-name="Layer 1" xmlns="http://www.w3.org/2000/svg" viewBox="0 0 589.97 196.21"><defs><style>.cls-1{fill:#9b9797;}.cls-2{fill:none;}.cls-3{fill:#f89224;}</style></defs><path class="cls-1" d="M270.63,192.35a15.28,15.28,0,0,1-5.87,1c-6.25,0-11-3.64-11-10.36,0-6.41,4.71-10.75,11.59-10.75a12.67,12.67,0,0,1,5.27.91l-.69,2.16a11.15,11.15,0,0,0-4.48-.85c-5.2,0-8.66,3.06-8.66,8.44,0,5,3.13,8.23,8.53,8.23a12.21,12.21,0,0,0,4.67-.85Z" transform="translate(-8.03 -6.33)"/><path class="cls-1" d="M282,172.54v8.57h10.74v-8.57h2.9V193h-2.9v-9.6H282V193h-2.86V172.54Z" transform="translate(-8.03 -6.33)"/><path class="cls-1" d="M317.05,183.42h-8.63v7.38H318V193H305.55V172.54h12v2.22h-9.12v6.47h8.63Z" transform="translate(-8.03 -6.33)"/><path class="cls-1" d="M331.73,193v-8.69l-7-11.79H328l3.13,5.65c.86,1.55,1.52,2.8,2.21,4.23h.06c.63-1.34,1.39-2.68,2.24-4.23l3.2-5.65h3.26l-7.44,11.76V193Z" transform="translate(-8.03 -6.33)"/><path class="cls-1" d="M367.32,182.57c0,7.05-4.64,10.78-10.31,10.78-5.86,0-10-4.19-10-10.39,0-6.5,4.37-10.75,10.3-10.75S367.32,176.49,367.32,182.57Zm-17.22.33c0,4.38,2.57,8.3,7.08,8.3s7.11-3.86,7.11-8.51c0-4.07-2.31-8.32-7.08-8.32S350.1,178.41,350.1,182.9Z" transform="translate(-8.03 -6.33)"/><path class="cls-1" d="M394.94,182.57c0,7.05-4.64,10.78-10.31,10.78-5.86,0-10-4.19-10-10.39,0-6.5,4.38-10.75,10.3-10.75S394.94,176.49,394.94,182.57Zm-17.22.33c0,4.38,2.57,8.3,7.08,8.3s7.11-3.86,7.11-8.51c0-4.07-2.3-8.32-7.08-8.32S377.72,178.41,377.72,182.9Z" transform="translate(-8.03 -6.33)"/><path class="cls-1" d="M403.6,193V172.54h3.13l7.11,10.36a56.81,56.81,0,0,1,4,6.66l.07,0c-.26-2.73-.33-5.22-.33-8.41v-8.57h2.7V193h-2.9l-7.05-10.39a64.94,64.94,0,0,1-4.14-6.84l-.1,0c.16,2.59.23,5.05.23,8.45V193Z" transform="translate(-8.03 -6.33)"/><path class="cls-1" d="M442.12,172.82a31.49,31.49,0,0,1,5.5-.43c3.06,0,5,.52,6.42,1.67a4.91,4.91,0,0,1,1.74,3.89,5.46,5.46,0,0,1-4.18,5.23v.09c1.71.54,2.73,2,3.26,4.13a30.62,30.62,0,0,0,1.71,5.62h-3a24.87,24.87,0,0,1-1.48-4.89c-.66-2.83-1.85-3.89-4.45-4H445V193h-2.86Zm2.86,9.32h2.93c3.06,0,5-1.55,5-3.89,0-2.64-2.08-3.79-5.11-3.82a12.89,12.89,0,0,0-2.83.24Z" transform="translate(-8.03 -6.33)"/><path class="cls-1" d="M476.26,183.42h-8.63v7.38h9.62V193H464.77V172.54h12v2.22h-9.12v6.47h8.63Z" transform="translate(-8.03 -6.33)"/><path class="cls-1" d="M501.41,192.35a15.18,15.18,0,0,1-5.86,1c-6.26,0-11-3.64-11-10.36,0-6.41,4.7-10.75,11.59-10.75a12.71,12.71,0,0,1,5.27.91l-.7,2.16a11.06,11.06,0,0,0-4.47-.85c-5.21,0-8.66,3.06-8.66,8.44,0,5,3.12,8.23,8.52,8.23a12.23,12.23,0,0,0,4.68-.85Z" transform="translate(-8.03 -6.33)"/><path class="cls-1" d="M512.8,172.54V193h-2.86V172.54Z" transform="translate(-8.03 -6.33)"/><path class="cls-1" d="M522.74,172.79a35,35,0,0,1,5.5-.4c2.83,0,4.91.61,6.23,1.7a5.34,5.34,0,0,1,1.94,4.29,5.75,5.75,0,0,1-1.71,4.37,9.67,9.67,0,0,1-6.79,2.25,10.79,10.79,0,0,1-2.3-.18V193h-2.87Zm2.87,9.87a10.44,10.44,0,0,0,2.37.21c3.46,0,5.56-1.55,5.56-4.37s-2.07-4-5.23-4a13.14,13.14,0,0,0-2.7.21Z" transform="translate(-8.03 -6.33)"/><path class="cls-1" d="M556.69,183.42h-8.63v7.38h9.62V193H545.2V172.54h12v2.22h-9.12v6.47h8.63Z" transform="translate(-8.03 -6.33)"/><path class="cls-1" d="M565.94,189.8a10.76,10.76,0,0,0,5.13,1.33c2.93,0,4.65-1.42,4.65-3.49,0-1.91-1.19-3-4.18-4.07-3.63-1.18-5.87-2.92-5.87-5.8,0-3.19,2.87-5.56,7.18-5.56a10.74,10.74,0,0,1,4.91,1l-.79,2.16a9.39,9.39,0,0,0-4.22-1c-3,0-4.18,1.67-4.18,3.06,0,1.92,1.35,2.86,4.41,3.95,3.76,1.34,5.67,3,5.67,6s-2.54,5.89-7.77,5.89a12.27,12.27,0,0,1-5.67-1.3Z" transform="translate(-8.03 -6.33)"/><path class="cls-2" d="M168.4,129.76l-1,.89A188.82,188.82,0,0,1,134.11,124c-5-1.46-9.64-2.93-14-4.44a68.84,68.84,0,0,1-.31-10.54c1-14.35,2.13-28.68,3.36-43,.54-6.24,1.41-12.45,2.13-18.71h6.27v65.66h6.06V47.25h6.57V113h6.06V47.3h6.92v65.63h6V47.29H168c1.15,10.6,2.59,21,3.37,31.5,1,13,1.44,26.14,2,39.22A14.93,14.93,0,0,1,168.4,129.76Z" transform="translate(-8.03 -6.33)"/><path class="cls-3" d="M200.87,130.21c-.05.17-.1.33-.14.49a128.84,128.84,0,0,1-18,1.22,149.12,149.12,0,0,1-15.76-.86c.16-.13.31-.27.46-.41l1-.89A14.93,14.93,0,0,0,173.35,118c-.57-13.08-1-26.17-2-39.22-.78-10.48-2.22-20.9-3.37-31.5h-4.78v65.64h-6V47.3h-6.92V113h-6.06V47.25h-6.57v65.69h-6.06V47.28h-6.27c-.72,6.26-1.59,12.47-2.13,18.71-1.23,14.33-2.41,28.66-3.36,43a68.84,68.84,0,0,0,.31,10.54c0,.17,0,.34,0,.51a188.08,188.08,0,0,1-17.48-7l.18-.43c5.33-12.55,6.52-25.6,1.82-38.93A41.62,41.62,0,0,0,87.34,51.61c-10.2-6.39-20.68-6-30.28,1.28-11.59,8.77-17.64,20.58-18.13,35,0,1,0,2,0,2.95v.51A108.23,108.23,0,0,0,8.44,95.61c0-.18,0-.35.05-.52a98.13,98.13,0,1,1,192.38,35.12Z" transform="translate(-8.03 -6.33)"/><path class="cls-3" d="M53.53,76.68C53,80.32,52.3,84,52,87.62c-.14,1.45-.2,2.88-.21,4.29v.48c-2-.3-4.06-.54-6.12-.7,0-.17,0-.32.06-.48a41.71,41.71,0,0,1,5.47-14.89c.4-.68,1.38-1,2-1.34C54.53,75.12,53.54,76.64,53.53,76.68Z" transform="translate(-8.03 -6.33)"/><path d="M200.73,130.7c-7.32,26.11-25,47.14-45.37,58.26-.65-12.32-1.29-24.42-1.93-36.52-.2-3.93-.31-7.87-.6-11.8-.11-1.46.26-2.15,1.74-2.54a30,30,0,0,0,12.42-7,149.12,149.12,0,0,0,15.76.86A128.84,128.84,0,0,0,200.73,130.7Z" transform="translate(-8.03 -6.33)"/><path d="M67,133.64c-1,19.66-2,39.24-3,58.87-28.35-12.09-58-46.77-55.79-92.77.07-1.39.17-2.76.29-4.13A108.23,108.23,0,0,1,38.9,91.39a53.15,53.15,0,0,0,7.44,27c4.14,6.88,9.81,11.83,17.59,14.19C64.94,132.87,65.92,133.26,67,133.64Z" transform="translate(-8.03 -6.33)"/><path d="M140.28,140.52c-.93,18.46-1.85,36.91-2.87,55.36a2.72,2.72,0,0,1-1.57,1.94A95.51,95.51,0,0,1,84.31,200a1.88,1.88,0,0,1-1.73-2.12Q81.22,170.42,79.79,143c-.16-3-.33-6.05-.5-9.23A27.3,27.3,0,0,1,82,132.67c9.07-2.54,15.37-8.53,19.35-16.71.47-1,.91-1.94,1.33-2.91a188.08,188.08,0,0,0,17.48,7c0,.62.11,1.24.17,1.86a9.66,9.66,0,0,0,1.82,4.54,30.21,30.21,0,0,0,16.55,11.69c.5.14,1,.35,1.58.57C140.29,139.33,140.31,139.93,140.28,140.52Z" transform="translate(-8.03 -6.33)"/><path d="M63.91,125a7.43,7.43,0,0,1-2.69-.38c-6.49-3.74-10.63-9.34-13.39-16.28a33,33,0,0,1-2.2-16.69c2.06.16,4.1.4,6.12.7.1,11.2,4.31,21.13,11.19,30.22A9.87,9.87,0,0,1,63.91,125Z" transform="translate(-8.03 -6.33)"/><path d="M324.9,53V52.8c0-19.37-22.53-24.3-38.56-24.3h-2.11c-20.43,0-40.33,4.93-56.35,18.84-1.76,1.41-2.46,4-2.46,6.87,0,7,4.22,15.85,8.45,16.9l.88.18c.88,0,1.41-.53,1.58-1.59,4.58-22.89,35.22-33.1,57.23-33.1l6,.35c9.33.88,12.68,5.81,12.68,11.62,0,6-3.53,13.21-7.58,18.32C299.37,73.75,292.15,79,286.17,79l-1.77-.18L293.21,56l.17-.7c0-2.82-6.16-5.46-10.56-5.46-1.94,0-3.7.52-4.23,1.93-4.22,9.69-17.78,48.08-17.78,61.28a11.28,11.28,0,0,0,.17,2.47c.89,3.87,5.82,4.57,10.22,4.57h1.41a1.86,1.86,0,0,0,1.58-1.76c0-6.86,4.93-23.06,7.93-32.57,4.93,3.87,16.72,2.82,16.72,12.15,0,2.46-.88,5.81-3,10-7,15-18.84,21.48-30.81,21.48A37.32,37.32,0,0,1,242,121a.71.71,0,0,0-.71-.36c-.88,0-1.58,1.41-1.58,2.64a2.94,2.94,0,0,0,.53,1.77c7.39,9.15,19.89,13.38,27.11,13.55h1.41c15,0,32.75-8.27,39.8-21.83,2.29-4.76,3.7-9.33,3.7-13.56,0-7-3.7-13.21-12.33-16.55C313.63,81.68,324.73,67.77,324.9,53Z" transform="translate(-8.03 -6.33)"/><path d="M597.83,74.11l.17-.88c0-2.65-5.46-5.11-9.51-5.11-1.93,0-3.7.53-4.4,1.76l-1.23,3.17c-2.11-3.35-6-4.75-10.39-4.93h-.18c-12.42,0-22.42,12.7-27.15,26.31-3.36,5.61-8.31,8.84-15.11,9.79a57.81,57.81,0,0,0,3.7-18.67,26.15,26.15,0,0,0-1.23-8.27c-1.76-6.34-5.46-9.51-11.27-9.51-4.4,0-8.45,2.46-12.15,7.22l.7-2.12c0-1.23-1-2.46-3.34-3.52a16.37,16.37,0,0,0-6.87-1.58,4.9,4.9,0,0,0-4.4,2.11q-3.71,7.7-8.39,23.36a17.21,17.21,0,0,1-14.68,8,52.7,52.7,0,0,0,2.29-14.61c0-8.28-2.46-16.2-10.92-18.31a19.46,19.46,0,0,0-4.4-.53c-12.31,0-22.24,13.44-26.4,27.82-4.61,9.87-8.35,17.86-12.51,24-3.7,5.28-7.57,9.15-12.5,11.79,4-11.09,8.1-24.3,11.8-36.09,2.46-8.46,4.93-16,6.86-21.66l.18-.53c0-2.47-4.93-5.28-9.16-5.28a6.51,6.51,0,0,0-4.75,1.58,4.58,4.58,0,0,0-1.23,2.82c-2.29-2.82-5.82-4.23-9.86-4.23h-.18c-12.77,0-23,13.32-27.53,27.3-10.49,21-18.84,28.08-24.77,30.28a16.35,16.35,0,0,1-3.87.53l-1.94-.17c-5.81-1.24-7.74-8.1-7.74-14.8a41.29,41.29,0,0,1,.7-6.69,7.35,7.35,0,0,0,4.93,1.76c9.51,0,22.36-15.32,22.72-27.82V78c0-6.69-5.46-10-12.15-10.21H351c-12.85,0-22.19,13.56-26.41,24.83a48.93,48.93,0,0,0-3.35,16.9c0,11.09,5.46,19.9,20.43,20.43h1.94a20.6,20.6,0,0,0,6.16-.89c5.61-2,12.91-7.4,21.61-22-.08,1.08-.13,2.15-.13,3.18,0,9.16,3.52,16.2,12,16.38h.35c6,0,10.92-5.46,15-11.27-2.11,7.57-3,11.09-5.11,16.9-16,.89-24.82,4.76-26.94,15.32a25.13,25.13,0,0,0-.35,3.35c0,6.52,3.88,11.45,11.62,12H379c14.79,0,22.18-14.79,26.94-26.94,7.22-2.81,12.32-7.57,17.08-14.44a108.46,108.46,0,0,0,7.6-13.37c0,.53,0,1.06,0,1.58,0,11.27,4.58,20.25,15.67,20.25,12.15,0,20.78-14.09,24.65-25.18h1.41a21,21,0,0,0,12.36-4.13q-2.76,9.85-5.85,22.26c-4.05,15.67-6.16,26.59-6.16,32.58,0,4.58,2.82,6.87,8.63,6.87l3.52-.18c.88,0,1.41-.7,1.41-2.11,0-8.1,4.93-28,14.61-59.7a78.53,78.53,0,0,1,9-16.55c2.82-4.05,5.11-6.16,7.05-6.16s3,2.46,3,7.57a55.9,55.9,0,0,1-4.05,20.07,20.64,20.64,0,0,0-12.5,3.7c-3.17,3-4.76,6.34-4.76,9.86q0,7.4,7.4,7.4c9.33,0,16.9-6.17,22.54-18.31A24.26,24.26,0,0,0,543,102.19a44.3,44.3,0,0,0-.86,8.37c0,9.15,3.52,16.2,12,16.37h.17c7,0,12.5-6.87,16.73-13.91-.18,2.11-.35,3.88-.35,5.64,0,3,.35,5.63,1.41,7.39,2.11,3.88,7,4.23,11.79,4.23.53,0,1.06-.71,1.06-1.41v-.7a2.67,2.67,0,0,0-.53-1.77c-.53-.35-.53-1.4-.53-2.81a52,52,0,0,1,.53-6.52C586.91,102.63,595.89,79,597.83,74.11ZM344.09,86.43c1.76-2.46,7.4-9.86,11.45-9.86a2.13,2.13,0,0,1,1.41.35,2.07,2.07,0,0,1,.88,1.94c0,5.64-10,21.13-17.61,21.13a4.05,4.05,0,0,1-2.47-.7A58.13,58.13,0,0,1,344.09,86.43Zm31,68.68c-3.52,0-5.1-2.29-5.1-5.29a8.89,8.89,0,0,1,.17-2.11c1.94-8.45,9.69-11.27,21.84-11.8C387.94,145.77,381.77,155.11,375.08,155.11ZM404.66,93.3c-1.93,4.93-11.62,23.24-16.9,23.24h-.18c-1.76,0-2.46-1.76-2.46-4.58,0-10.38,10-34.16,18.31-34.33,2.64,0,3.52,2.29,3.52,4.93C407,86.61,405.19,91.54,404.66,93.3Zm58.46,8.63c-1.93,5.46-8.8,22.54-15.67,22.54h-.53c-2.64-.35-3.7-3.52-3.7-7.93,0-12.67,9.34-36.62,17.79-38h.88c2.29,0,3.35,1.76,3.87,4-3.34.88-6.51,6-6.51,11.09A10.07,10.07,0,0,0,463.12,101.93Zm48.78,10.56a32.71,32.71,0,0,1-3.7,4.93c-1.41,1.41-2.64,2.29-3.7,2.29-1.41,0-1.94-.88-1.94-2.46a4,4,0,0,1,.36-1.94c1.58-4,5.28-6.16,11.09-6.52A10.31,10.31,0,0,1,511.9,112.49Zm63.56-18.66c-1.76,4.58-11.27,22.89-16.73,23.07-1.76,0-2.46-1.77-2.46-4.58,0-10.39,10-34.52,18-34.52l1.06.18c1.93.7,2.64,2.64,2.64,5.11C577.93,86.78,576.34,91.71,575.46,93.83Z" transform="translate(-8.03 -6.33)"/></svg>